<!DOCTYPE svg PUBLIC "-//W3C//DTD SVG 1.1//EN" "http://www.w3.org/Graphics/SVG/1.1/DTD/svg11.dtd">
<!-- Uploaded to: SVG Repo, www.svgrepo.com, Transformed by: SVG Repo Mixer Tools -->
<svg width="800px" height="800px" viewBox="0 0 24 24" fill="none" xmlns="http://www.w3.org/2000/svg">
<g id="SVGRepo_bgCarrier" stroke-width="0"/>
<g id="SVGRepo_tracerCarrier" stroke-linecap="round" stroke-linejoin="round"/>
<g id="SVGRepo_iconCarrier"> <path fill-rule="evenodd" clip-rule="evenodd" d="M12.2754 0.944403C11.3453 0.744005 10.2222 0.970412 9.13178 2.0608C8.33219 2.86038 7.9983 3.67642 7.95466 4.41945C7.21168 4.46315 6.39574 4.79705 5.59623 5.59656C4.7968 6.39598 4.46289 7.21185 4.41914 7.95476C3.67615 7.99845 2.86019 8.33235 2.06067 9.13187C0.970292 10.2223 0.743884 11.3454 0.94428 12.2755C1.21143 13.5155 2.36155 14.0955 2.99091 14.3815L13.0368 18.9479C13.7958 19.2928 14.6891 19.1308 15.2786 18.5413L18.5412 15.2788C19.1307 14.6892 19.2927 13.7959 18.9478 13.0369L14.3815 2.99103C14.0954 2.36167 13.5154 1.21155 12.2754 0.944403ZM11.3631 2.92663C11.5577 2.86548 11.7198 2.87057 11.8542 2.89954C11.9267 2.91516 12.0234 2.96174 12.154 3.11733C12.2925 3.28248 12.4237 3.51715 12.5607 3.81864L17.127 13.8645L17.0038 13.9877L10.2365 5.28681C10.1076 5.15387 10.0151 4.97688 9.97358 4.79696C9.92398 4.58201 9.88826 4.13274 10.546 3.47501C10.8869 3.13412 11.1654 2.98872 11.3631 2.92663ZM5.2867 10.2368L13.9875 17.0041L13.8644 17.1271L3.81852 12.5608C3.51702 12.4238 3.28236 12.2926 3.11721 12.1541C2.96162 12.0235 2.91504 11.9268 2.89942 11.8543C2.87045 11.7198 2.86535 11.5578 2.92651 11.3632C2.9886 11.1655 3.134 10.887 3.47489 10.5461C4.13262 9.88835 4.58189 9.92407 4.79683 9.97368C4.97795 10.0155 5.15478 10.1048 5.2867 10.2368ZM15.413 15.5788L6.6399 8.75532C6.58371 8.68236 6.4812 8.51974 6.43804 8.33271C6.38844 8.11777 6.35271 7.6685 7.01045 7.01077C7.66818 6.35304 8.11744 6.38876 8.33238 6.43837C8.51988 6.48163 8.68289 6.58461 8.75554 6.64065L15.5786 15.4132L15.413 15.5788Z" fill="#26A69A"/> <path fill-rule="evenodd" clip-rule="evenodd" d="M15.7878 19.4464C15.2924 19.9419 15.1623 20.7967 15.6981 21.4206C16.0694 21.853 16.8569 22.653 17.9452 23.0047C18.5098 23.1873 19.1614 23.2505 19.8583 23.0724C20.5523 22.8951 21.2237 22.4958 21.8597 21.8598C22.4957 21.2238 22.895 20.5523 23.0724 19.8583C23.2504 19.1614 23.1872 18.5099 23.0047 17.9452C22.6529 16.857 21.8529 16.0694 21.4206 15.6982C20.7966 15.1624 19.9418 15.2924 19.4464 15.7879L15.7878 19.4464ZM18.5603 21.1017C18.1893 20.9818 17.848 20.7386 17.5743 20.4883L20.4882 17.5744C20.7385 17.8481 20.9817 18.1894 21.1016 18.5603C21.1853 18.8192 21.2062 19.0832 21.1346 19.3632C21.0623 19.6461 20.8783 20.0128 20.4455 20.4456C20.0127 20.8784 19.646 21.0624 19.3631 21.1347C19.0832 21.2062 18.8192 21.1854 18.5603 21.1017Z" fill="#26A69A"/> </g>
</svg>